PathFileType	4	(X/Y/Z)	D:\TRACE\spot_10-12-23\spot_arm_body_motion_1_10-v60.trc
DataRate	CameraRate	NumFrames	NumMarkers	Units	OrigDataRate	OrigDataStartFrame	OrigNumFrames
100.00	100.00	      14	9	mm	100.00	4376	      7000
Frame#	Time	front left toe			Front right toe			aft left toe			aft right toe			Arm			FL body			FR body			AL Body			AR Body			
		X1	Y1	Z1	X2	Y2	Z2	X3	Y3	Z3	X4	Y4	Z4	X5	Y5	Z5	X6	Y6	Z6	X7	Y7	Z7	X8	Y8	Z8	X9	Y9	Z9	

4376	43.750	-128.85597	5.75560	-415.88956	321.68716	9.08759	-511.61148	-40.85234	22.44211	142.22368	329.50864	21.58410	132.84850	83.42497	737.22278	-765.32269	-23.80364	573.76019	-505.07056	128.21843	576.71991	-526.38623	94.31220	576.43457	368.99030	234.57336	573.87537	352.56165	
4377	43.760	-128.58751	6.12230	-415.98438	322.51324	9.31710	-511.22571	-40.47119	22.36383	142.29150	329.60767	21.49461	133.03081	84.42609	736.80560	-764.76508	-21.34350	574.28955	-504.93488	130.54652	575.80695	-527.94995	96.20969	575.86902	369.36737	236.43661	573.20410	352.88724	
4378	43.770	-128.14397	6.52657	-416.06985	322.92252	9.24204	-510.92117	-40.39750	22.31571	142.32980	329.64340	21.48205	133.32100	85.01162	736.40387	-764.38208	-18.71850	574.40039	-504.60989	133.75259	577.09552	-525.73468	98.58588	575.35431	369.65829	238.51137	572.74829	353.54370	
4379	43.780	-127.88369	6.94554	-416.18719	323.36911	9.15781	-510.67783	-40.30004	22.29153	142.36179	329.59531	21.46378	133.52573	85.21576	736.18658	-764.03729	-15.66317	574.59918	-504.24762	136.54764	577.19904	-525.10089	100.24799	574.98218	370.17438	240.22693	572.32971	354.10135	
4380	43.790	-127.77326	7.28418	-416.28183	323.79562	9.22272	-510.39346	-40.77982	22.66427	142.45070	329.65570	21.49597	133.73264	85.23486	736.09705	-763.75153	-12.63692	574.78705	-504.02667	140.11824	577.39886	-525.20300	101.75646	574.54291	370.55359	242.30545	572.09576	354.95844	
4381	43.800	-127.69734	7.81444	-416.40024	324.03574	9.19649	-510.23993	-40.72914	22.65639	142.45692	329.74384	21.40432	133.91620	84.92521	736.05469	-763.65167	-9.55421	574.91852	-503.68896	143.19019	577.54468	-524.49524	103.41946	574.43817	371.42444	243.74734	571.52740	355.43060	
4382	43.810	-127.54232	8.12090	-416.47153	324.23801	9.19369	-510.10660	-40.27116	22.40344	142.36833	329.83743	21.30579	134.08383	84.59122	736.03894	-763.56213	-6.62096	574.90747	-503.25598	145.26053	577.59113	-523.52185	105.30645	573.82837	371.86951	245.55447	571.16162	356.14221	
4383	43.820	-127.32714	8.47648	-416.40649	324.55710	9.24811	-509.89615	-40.22948	22.48293	142.38385	329.88943	21.05130	134.26105	84.23679	736.13116	-763.52930	-3.73936	575.11548	-502.78400	148.72733	577.86365	-522.87939	107.37974	573.48358	372.29343	247.43652	570.95251	357.02689	
4384	43.830	-127.16940	8.82851	-416.42719	324.65353	9.28116	-509.79669	-40.07747	22.69653	142.37601	329.93527	20.82529	134.30742	84.04162	736.24164	-763.42157	-0.76980	574.86902	-502.22214	151.56473	577.77405	-522.21521	110.02743	573.07684	372.95935	250.07166	570.67676	357.76526	
4385	43.840	-127.12585	9.27765	-416.32556	324.45996	9.24116	-509.81430	-39.95749	22.76510	142.28511	330.00043	20.63919	134.41576	83.98232	736.40417	-763.31732	2.02994	575.10596	-501.52307	154.52612	578.12708	-521.37061	112.06973	572.96271	373.76971	252.47064	570.46283	358.45016	
4386	43.850	-127.16592	10.50063	-416.23380	318.50470	6.57775	-513.28857	-39.92202	22.97455	142.54402	330.00690	19.97542	134.58041	84.15853	736.55682	-763.23065	4.59683	575.11755	-500.79248	157.54388	578.28314	-521.20123	114.89061	572.22620	374.35291	255.27747	570.00427	359.81082	
4387	43.860	-125.63435	16.10921	-413.84991	324.36337	8.30601	-509.72626	-39.60208	23.45988	142.36920	330.10559	18.50693	134.14595	84.47544	736.83569	-763.06274	7.10229	575.12488	-500.21545	160.09135	578.67505	-520.52161	116.83755	571.55133	374.90735	257.08881	569.72137	359.84467	
4388	43.870	-122.14618	25.88120	-410.25281	324.77176	8.15529	-509.55527	-39.26878	23.79173	142.61671	330.39490	18.44390	134.43301	85.01659	737.14587	-762.89099	9.55079	574.93585	-499.83698	162.34695	578.55988	-519.41229	119.09985	570.76660	375.41522	259.53217	569.26337	360.35458	
4389	43.880	-119.96543	36.99664	-407.32809	324.35199	8.16605	-509.66257	-39.27968	23.86014	142.84801	330.21387	18.39795	134.57751	85.50379	737.45898	-762.80560	11.70832	574.63525	-499.35114	164.18210	579.32520	-519.08002	121.34318	570.50952	375.72885	261.93207	568.99945	360.72586	
